<svg width="23" height="22" viewBox="0 0 23 22" fill="none" xmlns="http://www.w3.org/2000/svg">
<path fill-rule="evenodd" clip-rule="evenodd" d="M17.1354 7.35823C16.4432 7.35823 15.7835 7.49299 15.1819 7.73613C15.7468 6.94067 16.0783 5.977 16.0783 4.93773C16.0783 2.21072 13.8007 0 10.9914 0C8.18205 0 5.90459 2.21072 5.90459 4.93773C5.90459 5.92721 6.20558 6.84787 6.7218 7.62039C6.20854 7.45132 5.65894 7.35823 5.08679 7.35823C2.27736 7.35823 0 9.56895 0 12.296C0 15.023 2.27736 17.2337 5.08679 17.2337C5.72126 17.2337 6.32816 17.12 6.8883 16.9139C6.8882 16.915 9.25565 16.2945 10.8119 13.5449V15.2005C10.8119 15.2005 10.014 20.419 4.38862 20.9902H3.49087V21.8035H18.8111V20.9902H17.9135C12.2881 20.419 11.4901 15.2005 11.4901 15.2005V13.6564C11.7799 14.276 13.3826 17.3055 16.9843 17.2303C17.0346 17.2314 17.0847 17.2337 17.1354 17.2337C19.9449 17.2337 22.2222 15.023 22.2222 12.296C22.2222 9.56895 19.9449 7.35823 17.1354 7.35823Z" fill="#152935"/>
</svg>
