<svg width="22" height="22" viewBox="0 0 22 22" fill="none" xmlns="http://www.w3.org/2000/svg">
<path fill-rule="evenodd" clip-rule="evenodd" d="M15.8216 17.0925C19.9857 17.1387 22.5474 14.5019 21.1384 11.7265C19.7293 8.95093 18.3246 8.32647 16.1127 6.31423C13.8997 4.30199 10.6818 0.821062 10.697 0C10.7133 0.821062 7.62797 4.30199 5.41498 6.31423C3.20308 8.32647 1.79946 8.95093 0.389321 11.7265C-1.01973 14.5019 1.54307 17.1387 5.70613 17.0925C8.56444 17.0607 9.85073 15.4378 10.3755 14.4232V15.7511C10.3755 15.7511 9.46289 20.541 3.02274 21.0654H1.9961V21.8118H19.5327V21.0654H18.5049C12.0659 20.541 11.1522 15.7511 11.1522 15.7511V14.5976C11.7704 15.6133 13.1219 17.0625 15.8216 17.0925Z" fill="#152935"/>
</svg>